<mxfile host="app.diagrams.net" modified="2023-09-22T12:15:22.253Z" agent="Mozilla/5.0 (Macintosh; Intel Mac OS X 10.15; rv:109.0) Gecko/20100101 Firefox/117.0" version="21.7.5" etag="961iT9rlxrIVH4czeZGV" type="github">
  <diagram name="Page-1" id="I8AW93y5ywRRmHvgqQfI">
    <mxGraphModel>
      <root>
        <mxCell id="0" />
        <mxCell id="1" parent="0" />
      </root>
    </mxGraphModel>
  </diagram>
</mxfile>
